<?xml version="1.0" encoding="iso-8859-1"?>
<!-- Uploaded to: SVG Repo, www.svgrepo.com, Generator: SVG Repo Mixer Tools -->
<svg fill="#000000" height="800px" width="800px" version="1.1" id="Layer_1" xmlns="http://www.w3.org/2000/svg" xmlns:xlink="http://www.w3.org/1999/xlink" 
	 viewBox="0 0 512 512" xml:space="preserve">
<g>
	<g>
		<path d="M489.739,278.261H339.478v-45.782c36.468-11.632,65.609-30.76,82.843-54.392H89.682
			c17.231,23.632,46.372,42.761,82.839,54.392v45.782H22.261c-9.217,0-16.696,7.479-16.696,16.696
			c0,9.217,7.479,16.696,16.696,16.696h166.957h133.565h166.957c9.217,0,16.696-7.479,16.696-16.696
			C506.435,285.739,498.956,278.261,489.739,278.261z"/>
	</g>
</g>
<g>
	<g>
		<path d="M456.348,111.304H272.696V66.783c0-18.413,14.978-33.391,33.391-33.391s33.391,14.978,33.391,33.391
			c0,9.217,7.479,16.696,16.696,16.696c9.217,0,16.696-7.479,16.696-16.696C372.87,29.956,342.913,0,306.087,0
			C286.155,0,268.247,8.787,256,22.679C243.753,8.787,225.845,0,205.913,0c-36.826,0-66.783,29.956-66.783,66.783
			c0,9.217,7.479,16.696,16.696,16.696c9.217,0,16.696-7.479,16.696-16.696c0-18.413,14.978-33.391,33.391-33.391
			c18.413,0,33.391,14.978,33.391,33.391v44.522H55.652c-9.217,0-16.696,7.479-16.696,16.696s7.479,16.696,16.696,16.696h400.696
			c9.217,0,16.696-7.479,16.696-16.696S465.565,111.304,456.348,111.304z"/>
	</g>
</g>
<g>
	<g>
		<path d="M460.38,345.043H51.62c20.511,39.982,64.717,72.26,120.902,88.582v44.984h-50.087c-9.217,0-16.696,7.479-16.696,16.696
			c0,9.217,7.479,16.696,16.696,16.696h66.783h133.565h66.783c9.217,0,16.696-7.479,16.696-16.696
			c0-9.217-7.479-16.696-16.696-16.696h-50.087v-44.984C395.664,417.303,439.869,385.026,460.38,345.043z"/>
	</g>
</g>
</svg>