<?xml version="1.0" encoding="UTF-8" standalone="no" ?>
<!DOCTYPE svg PUBLIC "-//W3C//DTD SVG 1.1//EN" "http://www.w3.org/Graphics/SVG/1.1/DTD/svg11.dtd">
<svg xmlns="http://www.w3.org/2000/svg" xmlns:xlink="http://www.w3.org/1999/xlink" version="1.1" width="64" height="64" viewBox="0 0 64 64" xml:space="preserve">
<desc>Created with Fabric.js 3.6.6</desc>
<defs>
</defs>
<g transform="matrix(-1 0 0 1 320.5 240.5)"  >
<g style=""   >
		<g transform="matrix(1 0 0 1 0 0)" id="rect3091"  >
<rect style="stroke: none; stroke-width: 1; stroke-dasharray: none; stroke-linecap: butt; stroke-dashoffset: 0; stroke-linejoin: miter; stroke-miterlimit: 4; fill: none; fill-rule: nonzero; opacity: 1;"  x="-16" y="-16" rx="0" ry="0" width="32" height="32" />
</g>
		<g transform="matrix(1 0 0 1 0 0)" id="path3094"  >
<path style="stroke: none; stroke-width: 1; stroke-dasharray: none; stroke-linecap: butt; stroke-dashoffset: 0; stroke-linejoin: miter; stroke-miterlimit: 4; fill: black; fill-rule: nonzero; opacity: 1;"  transform=" translate(-16, -16)" d="M 32 32 C 32 27.928 28.952 24.572 25.016 24.071 C 29.084 19.472 28.414 12.417 24 8 l -5.578 5.579 C 17.869 13.215 17.21 13 16.5 13 C 14.568 13 13 14.567 13 16.5 c 0 0.71 0.215 1.369 0.579 1.921 L 8 24 c 2.534 2.534 5.939 3.833 9.252 3.716 C 16.463 28.955 16 30.422 16 32 H 32 z M 16 2 V 0 C 11.905 0 7.81 1.562 4.686 4.687 C 1.562 7.811 0 11.905 0 16 H 2 C 2.012 12.432 3.422 8.867 6.144 6.145 C 8.868 3.422 12.432 2.012 16 2 z m 0 4.002 V 4 C 12.944 4.011 9.846 5.183 7.514 7.515 C 5.182 9.847 4.011 12.945 4 16 H 6 C 6.011 13.457 6.987 10.87 8.929 8.929 C 10.87 6.988 13.456 6.014 16 6.002 z M 10 16 c 0.011 -1.52 0.597 -3.082 1.757 -4.242 C 12.917 10.598 14.479 10.012 16 10 V 8 C 13.967 8.012 11.894 8.792 10.343 10.344 C 8.792 11.895 8.011 13.968 8 16 h 2 z" stroke-linecap="round" />
</g>
</g>
</g>
<g transform="matrix(-2 0 0 2 32 32)"  >
<g style=""   >
		<g transform="matrix(1 0 0 1 0 0)" id="rect3091"  >
<rect style="stroke: none; stroke-width: 1; stroke-dasharray: none; stroke-linecap: butt; stroke-dashoffset: 0; stroke-linejoin: miter; stroke-miterlimit: 4; fill: none; fill-rule: nonzero; opacity: 1;"  x="-16" y="-16" rx="0" ry="0" width="32" height="32" />
</g>
		<g transform="matrix(1 0 0 1 0 0)" id="path3094"  >
<path style="stroke: none; stroke-width: 1; stroke-dasharray: none; stroke-linecap: butt; stroke-dashoffset: 0; stroke-linejoin: miter; stroke-miterlimit: 4; fill: black; fill-rule: nonzero; opacity: 1;"  transform=" translate(-16, -16)" d="M 32 32 C 32 27.928 28.952 24.572 25.016 24.071 C 29.084 19.472 28.414 12.417 24 8 l -5.578 5.579 C 17.869 13.215 17.21 13 16.5 13 C 14.568 13 13 14.567 13 16.5 c 0 0.71 0.215 1.369 0.579 1.921 L 8 24 c 2.534 2.534 5.939 3.833 9.252 3.716 C 16.463 28.955 16 30.422 16 32 H 32 z M 16 2 V 0 C 11.905 0 7.81 1.562 4.686 4.687 C 1.562 7.811 0 11.905 0 16 H 2 C 2.012 12.432 3.422 8.867 6.144 6.145 C 8.868 3.422 12.432 2.012 16 2 z m 0 4.002 V 4 C 12.944 4.011 9.846 5.183 7.514 7.515 C 5.182 9.847 4.011 12.945 4 16 H 6 C 6.011 13.457 6.987 10.87 8.929 8.929 C 10.87 6.988 13.456 6.014 16 6.002 z M 10 16 c 0.011 -1.52 0.597 -3.082 1.757 -4.242 C 12.917 10.598 14.479 10.012 16 10 V 8 C 13.967 8.012 11.894 8.792 10.343 10.344 C 8.792 11.895 8.011 13.968 8 16 h 2 z" stroke-linecap="round" />
</g>
</g>
</g>
<g transform="matrix(1 0 0 1 41 24)"  >
<line style="stroke: rgb(0,0,0); stroke-width: 2; stroke-dasharray: none; stroke-linecap: butt; stroke-dashoffset: 0; stroke-linejoin: miter; stroke-miterlimit: 4; fill: black; fill-rule: nonzero; opacity: 1;" vector-effect="non-scaling-stroke"  x1="0" y1="0" x2="0" y2="0" />
</g>
</svg>