<?xml version="1.0" encoding="iso-8859-1"?>
<!-- Uploaded to: SVG Repo, www.svgrepo.com, Generator: SVG Repo Mixer Tools -->
<svg fill="#000000" height="800px" width="800px" version="1.1" id="Layer_1" xmlns="http://www.w3.org/2000/svg" xmlns:xlink="http://www.w3.org/1999/xlink" 
	 viewBox="0 0 512 512" xml:space="preserve">
<g>
	<g>
		<path d="M119.778,244.505h-9.404c-4.328,0-7.837,3.508-7.837,7.837c0,4.329,3.509,7.837,7.837,7.837h9.404
			c4.328,0,7.837-3.508,7.837-7.837C127.614,248.013,124.106,244.505,119.778,244.505z"/>
	</g>
</g>
<g>
	<g>
		<path d="M89.476,267.994h-8.359c-4.328,0-7.837,3.508-7.837,7.837c0,4.329,3.509,7.837,7.837,7.837h8.359
			c4.328,0,7.837-3.509,7.837-7.837C97.312,271.502,93.804,267.994,89.476,267.994z"/>
	</g>
</g>
<g>
	<g>
		<path d="M110.374,392.846h-6.269c-4.328,0-7.837,3.508-7.837,7.837s3.509,7.837,7.837,7.837h6.269
			c4.328,0,7.837-3.508,7.837-7.837S114.702,392.846,110.374,392.846z"/>
	</g>
</g>
<g>
	<g>
		<path d="M76.937,368.813h-8.359c-4.328,0-7.837,3.508-7.837,7.837s3.509,7.837,7.837,7.837h8.359c4.328,0,7.837-3.508,7.837-7.837
			S81.265,368.813,76.937,368.813z"/>
	</g>
</g>
<g>
	<g>
		<path d="M166.994,295.492h-9.671c-4.451,0-8.059,3.607-8.059,8.059c0,4.451,3.608,8.059,8.059,8.059h9.671
			c4.45,0,8.059-3.608,8.059-8.059C175.053,299.099,171.445,295.492,166.994,295.492z"/>
	</g>
</g>
<g>
	<g>
		<path d="M323.173,301.529h-8.637c-4.45,0-8.058,3.608-8.058,8.059s3.608,8.059,8.058,8.059h8.637c4.451,0,8.059-3.608,8.059-8.059
			S327.625,301.529,323.173,301.529z"/>
	</g>
</g>
<g>
	<g>
		<path d="M270.149,295.492h-9.671c-4.45,0-8.058,3.607-8.058,8.059c-0.001,4.451,3.607,8.059,8.058,8.059h9.67
			c4.451,0,8.059-3.608,8.059-8.059C278.208,299.099,274.6,295.492,270.149,295.492z"/>
	</g>
</g>
<g>
	<g>
		<path d="M135.833,313.759h-8.596c-4.451,0-8.059,3.607-8.059,8.058c0,4.452,3.608,8.059,8.059,8.059h8.596
			c4.451,0,8.059-3.607,8.059-8.059C143.892,317.366,140.284,313.759,135.833,313.759z"/>
	</g>
</g>
<g>
	<g>
		<path d="M200.286,348.738h-9.824c-4.521,0-8.187,3.664-8.187,8.187c0,4.522,3.665,8.188,8.187,8.188h9.824
			c4.521,0,8.187-3.666,8.187-8.188C208.473,352.402,204.807,348.738,200.286,348.738z"/>
	</g>
</g>
<g>
	<g>
		<path d="M238.514,371.661h-8.774c-4.521,0-8.187,3.666-8.187,8.188c0,4.522,3.665,8.187,8.187,8.187h8.774
			c4.522,0,8.187-3.664,8.187-8.187C246.7,375.326,243.035,371.661,238.514,371.661z"/>
	</g>
</g>
<g>
	<g>
		<path d="M294.753,351.641h-8.774c-4.522,0-8.187,3.666-8.187,8.188c0,4.522,3.665,8.187,8.187,8.187h8.774
			c4.521,0,8.187-3.664,8.187-8.187C302.94,355.306,299.274,351.641,294.753,351.641z"/>
	</g>
</g>
<g>
	<g>
		<path d="M203.561,392.402h-6.55c-4.521,0-8.187,3.665-8.187,8.188s3.666,8.187,8.187,8.187h6.55c4.521,0,8.187-3.664,8.187-8.187
			S208.082,392.402,203.561,392.402z"/>
	</g>
</g>
<g>
	<g>
		<path d="M278.882,382.578h-7.641c-4.521,0-8.187,3.665-8.187,8.188c0,4.522,3.666,8.187,8.187,8.187h7.641
			c4.522,0,8.188-3.664,8.188-8.187C287.07,386.242,283.405,382.578,278.882,382.578z"/>
	</g>
</g>
<g>
	<g>
		<path d="M338.922,374.937h-8.733c-4.522,0-8.188,3.665-8.188,8.187c0,4.522,3.666,8.188,8.188,8.188h8.733
			c4.521,0,8.187-3.666,8.187-8.188C347.109,378.602,343.443,374.937,338.922,374.937z"/>
	</g>
</g>
<g>
	<g>
		<path d="M166.487,371.661h-8.775c-4.521,0-8.187,3.666-8.187,8.188c0,4.522,3.665,8.187,8.187,8.187h8.775
			c4.522,0,8.187-3.664,8.187-8.187C174.674,375.326,171.009,371.661,166.487,371.661z"/>
	</g>
</g>
<g>
	<g>
		<path d="M306.445,62.756h-22.69c-4.328,0-7.837,3.508-7.837,7.837s3.509,7.838,7.837,7.838h22.69
			c13.813,0,25.049,11.237,25.049,25.049c0,13.813-11.237,25.049-25.049,25.049h-65.259c-19.516,0-35.392,15.876-35.392,35.392
			v17.891c0,4.329,3.509,7.837,7.837,7.837c4.328,0,7.837-3.508,7.837-7.837v-17.892c0-10.872,8.845-19.718,19.718-19.718h65.259
			c22.455,0,40.723-18.268,40.723-40.723C347.167,81.023,328.899,62.756,306.445,62.756z"/>
	</g>
</g>
<g>
	<g>
		<path d="M258.379,77.064h-51.288c-14.659,0-26.584-11.926-26.584-26.585s11.927-26.585,26.584-26.585h18.413
			c4.328,0,7.837-3.508,7.837-7.837c0-4.329-3.509-7.837-7.837-7.837h-18.413c-23.301,0-42.258,18.958-42.258,42.259
			c-0.001,23.301,18.957,42.259,42.258,42.259h51.288c4.328,0,7.837-3.508,7.837-7.837
			C266.216,80.572,262.707,77.064,258.379,77.064z"/>
	</g>
</g>
<g>
	<g>
		<path d="M494.034,413.197h-79.815c1.751-2.028,3.297-4.206,4.594-6.552c5.954,1.59,12.932,2.442,20.569,2.442h0.001
			c4.217,0,8.562-0.26,12.914-0.775c25.511-3.017,50.284-14.977,48.272-32c-0.98-8.287-8.241-14.623-20.076-17.976
			c12.997-19.04,15.855-36.615,6.727-45.744c-2.46-2.46-6.94-5.393-14.31-5.393c-4.277,0-9.054,1.005-14.108,2.893
			c-3.358-3.963-8.735-7.076-15.792-9.099c12.746-18.739,15.518-36.038,6.512-45.044c-2.439-2.438-6.876-5.344-14.173-5.344
			c-9.202,0-20.745,4.714-32.351,12.883c-3.272-3.453-8.185-6.189-14.472-8.031c12.309-18.221,14.934-35.038,6.141-43.83
			c-2.4-2.399-6.766-5.26-13.934-5.26c-9.009,0-20.307,4.632-31.654,12.638c-1.807-8.196-9.117-14.35-17.848-14.35h-22.989
			c-4.328,0-7.837,3.508-7.837,7.837s3.509,7.837,7.837,7.837h22.989c1.44,0,2.612,1.171,2.612,2.612
			c0,18.108-6.962,34.692-18.459,47.532c-2.469-0.723-5.054-1.113-7.694-1.113c-5.537,0-10.852,1.655-15.331,4.64
			c-5.057-4.831-11.865-7.676-19.094-7.676c-5.536,0-10.851,1.656-15.33,4.64c-5.057-4.832-11.864-7.676-19.096-7.676
			c-5.219,0-10.264,1.487-14.589,4.18c-2.38-2.629-5.202-4.797-8.327-6.423c0.567-1.084,0.892-2.315,0.892-3.625
			c0-4.329-3.509-7.837-7.837-7.837H183.44c-0.981-2.38-1.831-4.822-2.55-7.314h37.493c4.328,0,7.837-3.508,7.837-7.837
			c0-4.329-3.509-7.837-7.837-7.837h-40.123c-0.063-1.212-0.107-2.429-0.107-3.657c0-1.441,1.172-2.612,2.612-2.612h95.086
			c4.328,0,7.837-3.508,7.837-7.837s-3.509-7.837-7.837-7.837h-95.086c-7.289,0-13.576,4.297-16.511,10.481
			c-3.256-1.226-6.759-1.904-10.4-1.904c-7.804,0-15.145,3.147-20.54,8.411c-5.27-4.651-12.145-7.358-19.459-7.358
			c-8.891,0-17.278,4.079-22.816,10.883c-28.913,1.893-51.856,26.019-51.856,55.405c0,20.279,10.743,37.978,26.957,47.664
			c-22.825,6.896-39.496,28.109-39.496,53.154c0,11.845,3.676,22.803,9.956,31.806H17.966C8.059,413.197,0,421.162,0,430.955v2.976
			c0,9.792,8.059,17.757,17.966,17.757h16.372c12.976,31.004,43.531,52.092,78.314,52.092h38.857c4.328,0,7.837-3.508,7.837-7.837
			c0-4.329-3.509-7.837-7.837-7.837h-38.857c-26.041,0-49.18-14.487-60.989-36.419H362.58c4.328,0,7.837-3.508,7.837-7.837
			c0-4.329-3.509-7.837-7.837-7.837H17.966c-2.191,0-2.293-1.945-2.293-3.571c0-1.628,0.106-3.571,2.293-3.571h476.068
			c2.191,0,2.293,1.945,2.293,3.571c0,1.628-0.106,3.571-2.293,3.571h-93.839c-4.328,0-7.837,3.508-7.837,7.837
			c0,4.329,3.509,7.837,7.837,7.837h60.14c-11.807,21.93-34.948,36.419-60.989,36.419h-206.04c-4.328,0-7.837,3.508-7.837,7.837
			c0,4.329,3.509,7.837,7.837,7.837h206.04c34.784,0,65.339-21.088,78.315-52.092h16.372c9.906,0,17.966-7.965,17.966-17.757v-2.976
			C512,421.162,503.941,413.197,494.034,413.197z M472.911,322.872c1.541,0,2.718,0.293,3.228,0.804
			c0.763,0.762,1.604,3.965-0.665,10.639c-2.511,7.387-7.848,16.048-15.027,24.383c-1.923,2.233-2.432,5.355-1.316,8.081
			c1.116,2.727,3.667,4.598,6.603,4.843c13.731,1.142,19.003,5.427,19.269,6.524c0.001,2.449-10.767,11.79-34.547,14.601
			c-3.744,0.443-7.469,0.668-11.073,0.668c-0.001,0-0.001,0-0.002,0c-6.235,0-11.543-0.676-15.729-1.702
			c0.254-1.842,0.417-3.738,0.478-5.689l16.154-6.651c4.181-1.721,6.175-6.507,4.453-10.688c-1.721-4.182-6.507-6.17-10.687-4.453
			l-12.211,5.027c-0.601-1.829-1.303-3.596-2.131-5.286c3.5-5.686,8.397-12.057,15.023-18.683
			C450.135,329.887,465.32,322.872,472.911,322.872z M347.757,240.213c13.492-12.448,26.324-18.173,32.978-18.173
			c1.366,0,2.431,0.25,2.852,0.671c1.988,1.988,0.377,15.17-15.037,33.068c-1.923,2.234-2.43,5.356-1.315,8.082
			c1.116,2.727,3.668,4.598,6.604,4.842c9.442,0.784,14.685,3.094,16.9,4.721c-1.333,1.228-2.657,2.492-3.965,3.801
			c-1.627,1.628-3.189,3.286-4.698,4.962c-4.649,2.144-10.885,4.186-18.577,5.457c-0.915-0.445-1.841-0.882-2.808-1.282
			c-3.552-4.674-8.481-7.937-14.05-9.398l2.864-1.18c4.002-1.648,5.911-6.229,4.263-10.231c-1.648-4.003-6.229-5.908-10.23-4.263
			l-3.917,1.613C343.343,255.823,346.11,248.208,347.757,240.213z M181.47,287.787c3.196-0.084,6.021-2.101,7.138-5.096
			c2.085-5.593,7.482-9.352,13.431-9.352c5.916,0,11.15,3.563,13.334,9.079c1.06,2.676,3.5,4.555,6.357,4.896
			c2.859,0.339,5.672-0.911,7.331-3.262c2.249-3.186,5.905-5.088,9.78-5.088c4.694,0,8.977,2.775,10.913,7.071
			c1.164,2.584,3.633,4.336,6.455,4.586c2.831,0.248,5.561-1.046,7.16-3.384c2.241-3.28,5.941-5.237,9.898-5.237
			c4.693,0,8.977,2.775,10.913,7.072c1.165,2.584,3.634,4.336,6.457,4.585c2.818,0.249,5.56-1.047,7.159-3.386
			c2.238-3.278,5.937-5.235,9.895-5.235c4.616,0,8.87,2.717,10.837,6.919c1.219,2.605,3.766,4.333,6.637,4.503l1.992,0.117
			c2.116,0.124,4.195-0.614,5.758-2.048c1.937-1.776,4.437-2.755,7.037-2.755c3.678,0,7.018,1.896,8.933,5.071
			c0.928,1.538,2.356,2.71,4.046,3.322c12.705,4.593,18.88,13.271,18.88,26.532c0,2.437-0.212,4.718-0.63,6.849
			c-2.401,0.447-4.725,1.219-6.907,2.306c-5.239-5.987-12.901-9.599-21.053-9.599c-5.634,0-11.041,1.696-15.589,4.751
			c-5.122-4.929-12.037-7.834-19.384-7.834c-5.634,0-11.041,1.696-15.588,4.751c-5.122-4.929-12.037-7.834-19.385-7.834
			c-5.314,0-10.449,1.525-14.844,4.284c-5.637-6.27-13.733-9.998-22.545-9.998c-5.424,0-10.628,1.48-15.152,4.1
			c0.012-0.174,0.026-0.348,0.026-0.526c0-4.451-3.608-8.059-8.059-8.059h-8.637c-3.622,0-6.684,2.389-7.7,5.677
			c-0.75-0.056-1.504-0.092-2.264-0.092c-9.234,0-17.942,4.261-23.661,11.359c-22.475,1.414-41.493,15.764-49.686,35.671
			c-12.447-7.082-20.743-20.449-20.743-35.806c0-22.645,18.362-41.081,40.978-41.202l0.249,0.015
			c2.958,0.167,5.766-1.33,7.251-3.895c2.568-4.435,7.326-7.189,12.419-7.189c5.719,0,10.887,3.396,13.169,8.652
			C175.347,286.005,178.303,287.887,181.47,287.787z M54.857,280.573c0-21.9,17.755-39.731,39.628-39.85l0.236,0.014
			c2.954,0.187,5.763-1.331,7.247-3.895c2.459-4.245,7.013-6.883,11.889-6.883c5.475,0,10.424,3.251,12.607,8.283
			c1.273,2.934,4.225,4.838,7.395,4.715c3.196-0.084,6.021-2.101,7.138-5.096c1.997-5.356,7.164-8.954,12.859-8.954
			c3.479,0,6.708,1.291,9.169,3.508c1.105,9.967,3.931,19.446,8.191,28.167c-3.247-1.189-6.725-1.833-10.31-1.833
			c-9.108,0-17.7,4.195-23.352,11.185c-27.157,1.731-49.164,22.618-52.695,49.254C67.5,314.828,54.857,299.217,54.857,280.573z
			 M58.095,413.198v-0.001c-9.619-7.264-15.777-18.796-15.777-31.806c0-21.9,17.755-39.73,39.628-39.85l0.236,0.014
			c1.372,0.092,2.706-0.202,3.896-0.786c4.175,16.541,15.553,30.163,30.71,37.324c-0.225,2.065-0.351,4.157-0.351,6.28
			c0,10.51,2.786,20.349,7.659,28.826H58.095z M383.768,413.059c-0.15,0.038-0.293,0.094-0.44,0.138H143.516
			c-7.086-7.512-11.404-17.649-11.404-28.826c0-23.07,18.706-41.855,41.747-41.983l0.243,0.016c2.965,0.181,5.787-1.322,7.276-3.896
			c2.63-4.543,7.505-7.365,12.723-7.365c5.86,0,11.155,3.479,13.492,8.864c1.273,2.934,4.222,4.801,7.395,4.715
			c3.196-0.084,6.021-2.101,7.138-5.097c2.136-5.73,7.666-9.582,13.762-9.582c6.061,0,11.424,3.652,13.663,9.303
			c1.06,2.675,3.5,4.554,6.356,4.895c2.858,0.334,5.671-0.911,7.331-3.261c2.309-3.271,6.061-5.222,10.037-5.222
			c4.817,0,9.213,2.849,11.2,7.258c1.164,2.584,3.633,4.337,6.456,4.587c2.822,0.25,5.561-1.046,7.16-3.387
			c2.299-3.367,6.096-5.376,10.157-5.376c4.816,0,9.212,2.849,11.2,7.259c1.165,2.584,3.634,4.337,6.457,4.586
			c2.825,0.249,5.561-1.047,7.16-3.387c2.299-3.367,6.095-5.376,10.156-5.376c4.738,0,9.103,2.788,11.123,7.103
			c2.355,5.033,10.381,6.27,14.415,2.576c1.995-1.829,4.565-2.835,7.237-2.835c3.78,0,7.212,1.949,9.182,5.213
			c0.928,1.539,2.356,2.712,4.046,3.323c12.963,4.685,19.264,13.54,19.264,27.069C408.488,399.725,400.403,409.109,383.768,413.059z
			 M402.349,335.471c-0.001,0-0.001,0-0.002,0c-6.072,0-11.246-0.652-15.337-1.642c0.243-1.801,0.394-3.656,0.449-5.563
			l15.776-6.496c4.116-1.695,6.078-6.405,4.383-10.52c-1.695-4.116-6.404-6.075-10.52-4.384l-11.904,4.902
			c-0.585-1.779-1.267-3.5-2.069-5.145c3.819-6.131,8.896-12.478,14.731-18.314c15.136-15.135,30.046-22.029,37.494-22.029
			c1.463,0,2.617,0.282,3.09,0.753c2.57,2.57-0.554,17.01-15.452,34.309c-1.923,2.234-2.43,5.356-1.314,8.082
			c1.116,2.727,3.668,4.598,6.604,4.842c7.45,0.619,12.397,2.178,15.351,3.63c-6.152,3.973-12.386,8.939-18.369,14.729
			c-3.548,0.9-7.547,1.661-12.027,2.191C409.553,335.25,405.891,335.471,402.349,335.471z"/>
	</g>
</g>
</svg>