<svg width="20" height="20" viewBox="0 0 20 20" fill="none" xmlns="http://www.w3.org/2000/svg">
<g clip-path="url(#clip0_2312_22077)">
<path d="M4.83 15H7.74C7.05648 14.4812 6.52184 13.7913 6.19 13H5C4.20435 13 3.44129 12.6839 2.87868 12.1213C2.31607 11.5587 2 10.7956 2 10C2 9.20435 2.31607 8.44129 2.87868 7.87868C3.44129 7.31607 4.20435 7 5 7H8C8.47923 7.00135 8.95116 7.11748 9.37629 7.33868C9.80142 7.55988 10.1674 7.8797 10.4435 8.27138C10.7196 8.66306 10.8979 9.11519 10.9634 9.58993C11.0289 10.0647 10.9797 10.5482 10.82 11H12.92C12.9706 10.7262 12.9974 10.4485 13 10.17V9.83C13 8.549 12.4911 7.32048 11.5853 6.41467C10.6795 5.50887 9.451 5 8.17 5H4.83C3.549 5 2.32048 5.50887 1.41467 6.41467C0.508874 7.32048 0 8.549 0 9.83L0 10.17C0 11.451 0.508874 12.6795 1.41467 13.5853C2.32048 14.4911 3.549 15 4.83 15Z" fill="#3366CC"/>
<path d="M15.17 5H12.26C12.9435 5.51879 13.4782 6.20865 13.81 7H15C15.7956 7 16.5587 7.31607 17.1213 7.87868C17.6839 8.44129 18 9.20435 18 10C18 10.7956 17.6839 11.5587 17.1213 12.1213C16.5587 12.6839 15.7956 13 15 13H12C11.5208 12.9987 11.0488 12.8825 10.6237 12.6613C10.1986 12.4401 9.83263 12.1203 9.5565 11.7286C9.28037 11.3369 9.10208 10.8848 9.03658 10.4101C8.97108 9.93534 9.02025 9.45182 9.18 9H7.08C7.02941 9.27384 7.00264 9.55154 7 9.83V10.17C7 11.451 7.50887 12.6795 8.41467 13.5853C9.32047 14.4911 10.549 15 11.83 15H15.17C15.8043 15 16.4324 14.8751 17.0184 14.6323C17.6044 14.3896 18.1368 14.0338 18.5853 13.5853C19.0338 13.1368 19.3896 12.6044 19.6323 12.0184C19.8751 11.4324 20 10.8043 20 10.17V9.83C20 9.19572 19.8751 8.56764 19.6323 7.98164C19.3896 7.39564 19.0338 6.86318 18.5853 6.41467C18.1368 5.96617 17.6044 5.61039 17.0184 5.36766C16.4324 5.12493 15.8043 5 15.17 5Z" fill="#3366CC"/>
</g>
<defs>
<clipPath id="clip0_2312_22077">
<rect width="20" height="20" fill="white"/>
</clipPath>
</defs>
</svg>
